<?xml version="1.0" encoding="UTF-8"?>
<svg width="499px" height="71px" viewBox="0 0 499 71" version="1.1" xmlns="http://www.w3.org/2000/svg" xmlns:xlink="http://www.w3.org/1999/xlink">
    <title>logo</title>
    <g id="Page-1" stroke="none" stroke-width="1" fill="none" fill-rule="evenodd">
        <g id="Tablet" transform="translate(-159.000000, -284.000000)">
            <g id="logo" transform="translate(159.495739, 284.806108)">
                <path d="M23.203125,69.193892 C29.8508523,69.193892 35.5664062,67.8835227 40.3497869,65.2627841 C45.1331676,62.6420455 48.8085937,58.881392 51.3760653,53.9808239 C53.9435369,49.0802557 55.2272727,43.2208807 55.2272727,36.4026989 C55.2272727,29.6058239 53.9435369,23.7677557 51.3760653,18.8884943 C48.8085937,14.009233 45.1491477,10.2645597 40.3977273,7.65447443 C35.6463068,5.0443892 29.9786932,3.73934659 23.3948864,3.73934659 L23.3948864,3.73934659 L0,3.73934659 L0,69.193892 L23.203125,69.193892 Z M22.6278409,57.3366477 L13.8387784,57.3366477 L13.8387784,15.5965909 L22.6598011,15.5965909 C26.7507102,15.5965909 30.1917614,16.3210227 32.9829545,17.7698864 C35.7741477,19.21875 37.878196,21.4772727 39.2950994,24.5454545 C40.7120028,27.6136364 41.4204545,31.5660511 41.4204545,36.4026989 C41.4204545,41.2819602 40.7120028,45.2610085 39.2950994,48.3398438 C37.878196,51.418679 35.768821,53.6878551 32.9669744,55.1473722 C30.1651278,56.6068892 26.71875,57.3366477 22.6278409,57.3366477 L22.6278409,57.3366477 Z M85.0710227,70.1526989 C89.1193182,70.1526989 92.6935369,69.5294744 95.793679,68.2830256 C98.893821,67.0365767 101.429332,65.2894176 103.400213,63.0415483 C105.371094,60.793679 106.676136,58.1569602 107.315341,55.131392 L107.315341,55.131392 L94.7230114,54.3004261 C94.2542614,55.5362216 93.5724432,56.5802557 92.6775568,57.4325284 C91.7826705,58.2848011 90.7066761,58.9240057 89.4495739,59.350142 C88.1924716,59.7762784 86.8075284,59.9893466 85.2947443,59.9893466 C83.0149148,59.9893466 81.0440341,59.5099432 79.3821023,58.5511364 C77.7201705,57.5923295 76.4364347,56.2286932 75.5308949,54.4602273 C74.6253551,52.6917614 74.1725852,50.5930398 74.1725852,48.1640625 L74.1725852,48.1640625 L74.1722614,48.132892 L107.602983,48.1321023 L107.602983,44.3927557 C107.602983,40.2166193 107.017045,36.5678267 105.84517,33.4463778 C104.673295,30.324929 103.037997,27.7308239 100.939276,25.6640625 C98.840554,23.5973011 96.3902699,22.0472301 93.5884233,21.0138494 C90.7865767,19.9804688 87.7663352,19.4637784 84.5276989,19.4637784 C79.712358,19.4637784 75.5202415,20.5291193 71.9513494,22.6598011 C68.3824574,24.790483 65.6178977,27.7627841 63.6576705,31.5767045 C61.6974432,35.390625 60.7173295,39.8224432 60.7173295,44.8721591 C60.7173295,50.0497159 61.6974432,54.5294744 63.6576705,58.3114347 C65.6178977,62.0933949 68.4144176,65.012429 72.0472301,67.0685369 C75.6800426,69.1246449 80.0213068,70.1526989 85.0710227,70.1526989 Z M74.208459,39.3218417 C74.3336909,37.7029583 74.7798295,36.2132204 75.546875,34.8526278 C76.4417614,33.2652699 77.6828835,31.9975142 79.2702415,31.0493608 C80.8575994,30.1012074 82.6846591,29.6271307 84.7514205,29.6271307 C86.7329545,29.6271307 88.4747869,30.0585938 89.9769176,30.9215199 C91.4790483,31.784446 92.65625,32.9723011 93.5085227,34.4850852 C94.3607955,35.9978693 94.7869318,37.734375 94.7869318,39.6946023 L94.7869318,39.6946023 L74.1852614,39.694892 L74.208459,39.3218417 Z M141.21804,69.193892 L158.380682,20.102983 L143.966619,20.102983 L133.803267,55.2272727 L133.291903,55.2272727 L123.096591,20.102983 L108.714489,20.102983 L125.877131,69.193892 L141.21804,69.193892 Z M207.009943,70.1526989 C211.377841,70.1526989 215.159801,69.3536932 218.355824,67.7556818 C221.551847,66.1576705 224.060724,63.9364347 225.882457,61.0919744 C227.70419,58.2475142 228.721591,54.9502841 228.934659,51.2002841 L228.934659,51.2002841 L216.086648,51.2002841 C215.830966,52.9261364 215.292969,54.4016335 214.472656,55.6267756 C213.652344,56.8519176 212.618963,57.7840909 211.372514,58.4232955 C210.126065,59.0625 208.725142,59.3821023 207.169744,59.3821023 C205.060369,59.3821023 203.21733,58.8068182 201.640625,57.65625 C200.06392,56.5056818 198.844105,54.8330966 197.981179,52.6384943 C197.118253,50.443892 196.68679,47.7805398 196.68679,44.6484375 C196.68679,41.5589489 197.12358,38.9275568 197.997159,36.7542614 C198.870739,34.5809659 200.090554,32.9243608 201.656605,31.784446 C203.222656,30.6445313 205.060369,30.0745739 207.169744,30.0745739 C209.662642,30.0745739 211.681463,30.8256392 213.226207,32.3277699 C214.770952,33.8299006 215.724432,35.806108 216.086648,38.256392 L216.086648,38.256392 L228.934659,38.256392 C228.742898,34.4637784 227.709517,31.1612216 225.834517,28.3487216 C223.959517,25.5362216 221.413352,23.3522727 218.196023,21.796875 C214.978693,20.2414773 211.228693,19.4637784 206.946023,19.4637784 C201.981534,19.4637784 197.698864,20.534446 194.098011,22.6757812 C190.497159,24.8171165 187.721946,27.7894176 185.772372,31.5926847 C183.822798,35.3959517 182.848011,39.8117898 182.848011,44.8401989 C182.848011,49.8046875 183.812145,54.193892 185.740412,58.0078125 C187.668679,61.821733 190.438565,64.7993608 194.050071,66.940696 C197.661577,69.0820313 201.981534,70.1526989 207.009943,70.1526989 Z M257.56392,70.1526989 C261.612216,70.1526989 265.186435,69.5294744 268.286577,68.2830256 C271.386719,67.0365767 273.92223,65.2894176 275.893111,63.0415483 C277.863991,60.793679 279.169034,58.1569602 279.808239,55.131392 L279.808239,55.131392 L267.215909,54.3004261 C266.747159,55.5362216 266.065341,56.5802557 265.170455,57.4325284 C264.275568,58.2848011 263.199574,58.9240057 261.942472,59.350142 C260.685369,59.7762784 259.300426,59.9893466 257.787642,59.9893466 C255.507812,59.9893466 253.536932,59.5099432 251.875,58.5511364 C250.213068,57.5923295 248.929332,56.2286932 248.023793,54.4602273 C247.118253,52.6917614 246.665483,50.5930398 246.665483,48.1640625 L246.665483,48.1640625 L246.665261,48.132892 L280.095881,48.1321023 L280.095881,44.3927557 C280.095881,40.2166193 279.509943,36.5678267 278.338068,33.4463778 C277.166193,30.324929 275.530895,27.7308239 273.432173,25.6640625 C271.333452,23.5973011 268.883168,22.0472301 266.081321,21.0138494 C263.279474,19.9804688 260.259233,19.4637784 257.020597,19.4637784 C252.205256,19.4637784 248.013139,20.5291193 244.444247,22.6598011 C240.875355,24.790483 238.110795,27.7627841 236.150568,31.5767045 C234.190341,35.390625 233.210227,39.8224432 233.210227,44.8721591 C233.210227,50.0497159 234.190341,54.5294744 236.150568,58.3114347 C238.110795,62.0933949 240.907315,65.012429 244.540128,67.0685369 C248.17294,69.1246449 252.514205,70.1526989 257.56392,70.1526989 Z M246.701357,39.3218417 C246.826589,37.7029583 247.272727,36.2132204 248.039773,34.8526278 C248.934659,33.2652699 250.175781,31.9975142 251.763139,31.0493608 C253.350497,30.1012074 255.177557,29.6271307 257.244318,29.6271307 C259.225852,29.6271307 260.967685,30.0585938 262.469815,30.9215199 C263.971946,31.784446 265.149148,32.9723011 266.00142,34.4850852 C266.853693,35.9978693 267.27983,37.734375 267.27983,39.6946023 L267.27983,39.6946023 L246.678261,39.694892 L246.701357,39.3218417 Z M309.939631,69.193892 C316.587358,69.193892 322.302912,67.8835227 327.086293,65.2627841 C331.869673,62.6420455 335.545099,58.881392 338.112571,53.9808239 C340.680043,49.0802557 341.963778,43.2208807 341.963778,36.4026989 C341.963778,29.6058239 340.680043,23.7677557 338.112571,18.8884943 C335.545099,14.009233 331.885653,10.2645597 327.134233,7.65447443 C322.382812,5.0443892 316.715199,3.73934659 310.131392,3.73934659 L310.131392,3.73934659 L286.736506,3.73934659 L286.736506,69.193892 L309.939631,69.193892 Z M309.364347,57.3366477 L300.575284,57.3366477 L300.575284,15.5965909 L309.396307,15.5965909 C313.487216,15.5965909 316.928267,16.3210227 319.71946,17.7698864 C322.510653,19.21875 324.614702,21.4772727 326.031605,24.5454545 C327.448509,27.6136364 328.15696,31.5660511 328.15696,36.4026989 C328.15696,41.2819602 327.448509,45.2610085 326.031605,48.3398438 C324.614702,51.418679 322.505327,53.6878551 319.70348,55.1473722 C316.901634,56.6068892 313.455256,57.3366477 309.364347,57.3366477 L309.364347,57.3366477 Z M371.807528,70.1526989 C375.855824,70.1526989 379.430043,69.5294744 382.530185,68.2830256 C385.630327,67.0365767 388.165838,65.2894176 390.136719,63.0415483 C392.107599,60.793679 393.412642,58.1569602 394.051847,55.131392 L394.051847,55.131392 L381.459517,54.3004261 C380.990767,55.5362216 380.308949,56.5802557 379.414062,57.4325284 C378.519176,58.2848011 377.443182,58.9240057 376.18608,59.350142 C374.928977,59.7762784 373.544034,59.9893466 372.03125,59.9893466 C369.75142,59.9893466 367.78054,59.5099432 366.118608,58.5511364 C364.456676,57.5923295 363.17294,56.2286932 362.267401,54.4602273 C361.361861,52.6917614 360.909091,50.5930398 360.909091,48.1640625 L360.909091,48.1640625 L360.908261,48.132892 L394.339489,48.1321023 L394.339489,44.3927557 C394.339489,40.2166193 393.753551,36.5678267 392.581676,33.4463778 C391.409801,30.324929 389.774503,27.7308239 387.675781,25.6640625 C385.57706,23.5973011 383.126776,22.0472301 380.324929,21.0138494 C377.523082,19.9804688 374.502841,19.4637784 371.264205,19.4637784 C366.448864,19.4637784 362.256747,20.5291193 358.687855,22.6598011 C355.118963,24.790483 352.354403,27.7627841 350.394176,31.5767045 C348.433949,35.390625 347.453835,39.8224432 347.453835,44.8721591 C347.453835,50.0497159 348.433949,54.5294744 350.394176,58.3114347 C352.354403,62.0933949 355.150923,65.012429 358.783736,67.0685369 C362.416548,69.1246449 366.757812,70.1526989 371.807528,70.1526989 Z M360.944965,39.3218417 C361.070197,37.7029583 361.516335,36.2132204 362.283381,34.8526278 C363.178267,33.2652699 364.419389,31.9975142 366.006747,31.0493608 C367.594105,30.1012074 369.421165,29.6271307 371.487926,29.6271307 C373.46946,29.6271307 375.211293,30.0585938 376.713423,30.9215199 C378.215554,31.784446 379.392756,32.9723011 380.245028,34.4850852 C381.097301,35.9978693 381.523437,37.734375 381.523437,39.6946023 L381.523437,39.6946023 L360.922261,39.694892 L360.944965,39.3218417 Z M422.90483,70.1526989 C427.272727,70.1526989 431.054687,69.3536932 434.25071,67.7556818 C437.446733,66.1576705 439.955611,63.9364347 441.777344,61.0919744 L431.981534,51.2002841 C431.725852,52.9261364 431.187855,54.4016335 430.367543,55.6267756 C429.54723,56.8519176 428.513849,57.7840909 427.267401,58.4232955 C426.020952,59.0625 424.620028,59.3821023 423.064631,59.3821023 C420.955256,59.3821023 419.112216,58.8068182 417.535511,57.65625 C415.958807,56.5056818 414.738991,54.8330966 413.876065,52.6384943 C413.013139,50.443892 412.581676,47.7805398 412.581676,44.6484375 C412.581676,41.5589489 413.018466,38.9275568 413.892045,36.7542614 C414.765625,34.5809659 415.98544,32.9243608 417.551491,31.784446 C419.117543,30.6445313 420.955256,30.0745739 423.064631,30.0745739 C425.557528,30.0745739 427.576349,30.8256392 429.121094,32.3277699 C430.665838,33.8299006 431.619318,35.806108 431.981534,38.256392 L441.729403,28.3487216 C439.854403,25.5362216 437.308239,23.3522727 434.090909,21.796875 C430.87358,20.2414773 427.12358,19.4637784 422.840909,19.4637784 C417.87642,19.4637784 413.59375,20.534446 409.992898,22.6757812 C406.392045,24.8171165 403.616832,27.7894176 401.667259,31.5926847 C399.717685,35.3959517 398.742898,39.8117898 398.742898,44.8401989 C398.742898,49.8046875 399.707031,54.193892 401.635298,58.0078125 C403.563565,61.821733 406.333452,64.7993608 409.944957,66.940696 C413.556463,69.0820313 417.87642,70.1526989 422.90483,70.1526989 Z M464.701705,3.73934659 L451.086648,3.73934659 L451.086648,69.193892 L464.701705,69.193892 L464.701261,53.608892 L468.391261,49.394892 L481.768466,69.193892 L497.716619,69.193892 L478.582261,41.367892 L496.789773,20.102983 L481.161222,20.102983 L465.43679,38.7357955 L464.701261,38.735892 L464.701705,3.73934659 Z" id="DeviceDeck" fill="#6A6A6A" fill-rule="nonzero"></path>
                <path d="M169.71946,13.774858 C171.743608,13.774858 173.474787,13.0983665 174.912997,11.7453835 C176.351207,10.3924006 177.070313,8.76775568 177.070313,6.87144886 C177.070313,4.99644886 176.351207,3.38245739 174.912997,2.02947443 C173.474787,0.676491477 171.732955,-2.84217094e-14 169.6875,-2.84217094e-14 C167.684659,-2.84217094e-14 165.958807,0.676491477 164.509943,2.02947443 C163.06108,3.38245739 162.336648,4.99644886 162.336648,6.87144886 C162.336648,8.76775568 163.06108,10.3924006 164.509943,11.7453835 C165.958807,13.0983665 167.695312,13.774858 169.71946,13.774858 Z" id="Path" fill="#4799FF" fill-rule="nonzero"></path>
                <rect id="Rectangle" fill="#FFFFFF" x="39.5042614" y="33.193892" width="17" height="8" rx="1"></rect>
                <rect id="Rectangle-Copy" fill="#FFFFFF" x="326.504261" y="33.193892" width="17" height="8" rx="1"></rect>
                <rect id="Rectangle-Copy-2" fill="#FFFFFF" x="182.504261" y="41.193892" width="17" height="8" rx="1"></rect>
                <rect id="Rectangle-Copy-3" fill="#FFFFFF" x="398.504261" y="41.193892" width="17" height="8" rx="1"></rect>
                <path d="M176.463068,69.193892 L176.463068,33.7180398 C176.463068,26.1986515 170.3674,20.102983 162.848011,20.102983 L162.848011,20.102983 L162.848011,20.102983 L162.848011,55.5788352 C162.848011,63.0982235 168.94368,69.193892 176.463068,69.193892 L176.463068,69.193892 L176.463068,69.193892 Z" id="Path" fill="#4799FF" fill-rule="nonzero"></path>
            </g>
        </g>
    </g>
</svg>