<?xml version="1.0" encoding="UTF-8"?>
<svg width="472px" height="66px" viewBox="0 0 472 66" version="1.1" xmlns="http://www.w3.org/2000/svg" xmlns:xlink="http://www.w3.org/1999/xlink">
    <title>Device Deck</title>
    <g id="Page-1" stroke="none" stroke-width="1" fill="none" fill-rule="evenodd">
        <g id="Tablet" transform="translate(-202.000000, -122.000000)" fill-rule="nonzero">
            <g id="Device-Deck" transform="translate(202.170000, 122.740000)">
                <path d="M40.32,64.26 L51.12,53.46 L51.12,12.06 L40.32,1.26 L-1.42108547e-14,1.26 L-1.42108547e-14,64.26 L40.32,64.26 Z M34.29,53.82 L12.24,53.82 L12.24,11.7 L34.29,11.7 L38.88,16.29 L38.88,49.23 L34.29,53.82 Z M90.49,64.26 L99.4,55.26 L99.4,49.41 L87.7,49.41 L87.7,51.75 L85,54.54 L70.33,54.54 L67.45,51.57 L67.45,45.81 L99.49,45.81 L99.49,28.8 L90.13,19.44 L64.84,19.44 L55.57,28.8 L55.57,55.08 L64.66,64.26 L90.49,64.26 Z M87.61,37.53 L67.45,37.53 L67.45,32.31 L70.51,29.16 L84.55,29.16 L87.61,32.31 L87.61,37.53 Z M126.35,64.26 L143.54,19.44 L131.21,19.44 L120.77,50.67 L120.41,50.67 L109.97,19.44 L97.64,19.44 L114.83,64.26 L126.35,64.26 Z" id="Dev" fill="#FFFFFF"></path>
                <polygon id="i" fill="#4799FF" points="156.72 64.26 156.72 19.44 144.84 19.44 144.84 64.26"></polygon>
                <polygon id="Path" fill="#4799FF" points="153.93 14.22 158.07 10.08 158.07 4.32 153.93 0.18 147.63 0.18 143.49 4.32 143.49 10.08 147.63 14.22"></polygon>
                <path d="M196.27,64.26 L205.54,54.9 L205.54,46.62 L193.66,46.62 L193.66,51.03 L190.51,54.18 L177.55,54.18 L174.4,51.03 L174.4,32.67 L177.55,29.52 L190.51,29.52 L193.66,32.67 L193.66,37.08 L205.54,37.08 L205.54,28.8 L196.27,19.44 L171.61,19.44 L162.52,28.62 L162.52,55.08 L171.61,64.26 L196.27,64.26 Z M242.66,64.26 L251.57,55.26 L251.57,49.41 L239.87,49.41 L239.87,51.75 L237.17,54.54 L222.5,54.54 L219.62,51.57 L219.62,45.81 L251.66,45.81 L251.66,28.8 L242.3,19.44 L217.01,19.44 L207.74,28.8 L207.74,55.08 L216.83,64.26 L242.66,64.26 Z M239.78,37.53 L219.62,37.53 L219.62,32.31 L222.68,29.16 L236.72,29.16 L239.78,32.31 L239.78,37.53 Z M316.36,64.26 L327.16,53.46 L327.16,12.06 L316.36,1.26 L276.04,1.26 L276.04,64.26 L316.36,64.26 Z M310.33,53.82 L288.28,53.82 L288.28,11.7 L310.33,11.7 L314.92,16.29 L314.92,49.23 L310.33,53.82 Z M366.53,64.26 L375.44,55.26 L375.44,49.41 L363.74,49.41 L363.74,51.75 L361.04,54.54 L346.37,54.54 L343.49,51.57 L343.49,45.81 L375.53,45.81 L375.53,28.8 L366.17,19.44 L340.88,19.44 L331.61,28.8 L331.61,55.08 L340.7,64.26 L366.53,64.26 Z M363.65,37.53 L343.49,37.53 L343.49,32.31 L346.55,29.16 L360.59,29.16 L363.65,32.31 L363.65,37.53 Z M412.83,64.26 L422.1,54.9 L422.1,46.62 L410.22,46.62 L410.22,51.03 L407.07,54.18 L394.11,54.18 L390.96,51.03 L390.96,32.67 L394.11,29.52 L407.07,29.52 L410.22,32.67 L410.22,37.08 L422.1,37.08 L422.1,28.8 L412.83,19.44 L388.17,19.44 L379.08,28.62 L379.08,55.08 L388.17,64.26 L412.83,64.26 Z M437.08,64.26 L437.08,45.99 L444.64,45.99 L457.24,64.26 L470.38,64.26 L454.54,41.04 L469.48,19.44 L456.34,19.44 L444.91,35.91 L437.08,35.91 L437.08,0 L425.2,0 L425.2,64.26 L437.08,64.26 Z" id="ceDeck" fill="#FFFFFF"></path>
            </g>
        </g>
    </g>
</svg>